<?xml version="1.0" standalone="no"?>
<!DOCTYPE svg PUBLIC "-//W3C//DTD SVG 20010904//EN"
 "http://www.w3.org/TR/2001/REC-SVG-20010904/DTD/svg10.dtd">
<svg version="1.0" xmlns="http://www.w3.org/2000/svg"
 width="528.000000pt" height="528.000000pt" viewBox="0 0 528.000000 528.000000"
 preserveAspectRatio="xMidYMid meet">
<metadata>
Created by potrace 1.11, written by Peter Selinger 2001-2013
</metadata>
<g transform="translate(0.000000,528.000000) scale(0.100000,-0.100000)"
fill="#000000" stroke="none">
<path d="M10 2640 l0 -2640 2635 0 2635 0 0 2640 0 2640 -2635 0 -2635 0 0
-2640z m2885 1710 c339 -48 675 -212 933 -454 322 -305 507 -696 541 -1152 60
-790 -460 -1534 -1233 -1765 -488 -145 -1034 -64 -1448 217 -562 382 -849
1024 -757 1694 46 333 213 676 451 925 178 187 342 304 562 403 295 132 625
177 951 132z"/>
<path d="M2425 4189 c-659 -102 -1165 -577 -1315 -1234 -27 -118 -37 -354 -21
-495 14 -119 57 -294 96 -390 208 -510 624 -857 1165 -971 152 -32 418 -32
578 -1 149 30 275 72 398 132 443 219 750 615 856 1104 32 146 32 433 0 593
-96 482 -386 870 -823 1102 -111 58 -234 103 -379 138 -89 21 -135 25 -300 28
-107 2 -222 0 -255 -6z m993 -564 c184 -44 340 -197 381 -375 13 -58 13 -182
0 -240 -44 -191 -217 -350 -414 -380 -47 -7 -347 -10 -906 -8 -791 3 -838 4
-857 21 -11 10 -22 29 -24 42 -6 30 15 80 38 91 11 5 410 11 899 14 l880 5 54
30 c62 34 123 99 153 164 17 37 22 66 22 141 1 90 -1 98 -33 158 -40 73 -94
124 -169 159 -43 20 -70 25 -136 25 -72 1 -90 -3 -148 -31 -113 -54 -198 -176
-198 -286 0 -74 -65 -124 -122 -94 -34 18 -38 28 -38 100 0 190 141 380 335
447 100 35 184 40 283 17z m-942 -134 c59 -27 121 -87 152 -145 30 -59 36
-164 13 -229 -22 -63 -84 -132 -148 -163 l-58 -29 -436 -3 -435 -3 -27 25
c-32 30 -36 73 -8 107 l19 24 424 5 c392 5 425 6 454 24 89 54 83 192 -11 232
-68 28 -123 8 -174 -63 -47 -65 -107 -68 -147 -8 -14 22 -15 32 -6 63 17 56
74 117 144 151 51 26 73 31 132 31 48 0 85 -7 112 -19z m788 -1031 c125 -39
241 -158 278 -285 17 -60 14 -191 -7 -250 -41 -116 -132 -212 -242 -256 -48
-19 -77 -23 -168 -24 -105 0 -113 1 -177 34 -131 65 -223 199 -235 339 -5 66
-4 72 20 96 50 50 137 17 137 -52 0 -91 63 -193 144 -234 60 -31 161 -36 217
-11 86 39 132 94 159 192 21 79 -23 200 -93 254 -78 59 -45 57 -814 57 l-705
0 -30 30 c-25 26 -29 36 -24 63 3 18 16 40 27 50 20 16 70 17 734 17 689 0
715 -1 779 -20z"/>
</g>
</svg>
